HIERARCHY
ROOT Hips
{
	OFFSET 0.000000 0.000000 0.000000
	CHANNELS 6 Xposition Yposition Zposition Zrotation Yrotation Xrotation 
	JOINT LowerBack
	{
		OFFSET 0.000000 0.000000 0.000000
		CHANNELS 3 Zrotation Yrotation Xrotation
		JOINT Spine
		{
			OFFSET 0.028270 2.035590 -0.193380
			CHANNELS 3 Zrotation Yrotation Xrotation
			JOINT Spine1
			{
				OFFSET 0.056720 2.048850 -0.042750
				CHANNELS 3 Zrotation Yrotation Xrotation
				JOINT Neck
				{
					OFFSET 0.000000 0.000000 0.000000
					CHANNELS 3 Zrotation Yrotation Xrotation
					JOINT Neck1
					{
						OFFSET -0.054170 1.746240 0.172020
						CHANNELS 3 Zrotation Yrotation Xrotation
						JOINT Head
						{
							OFFSET 0.104070 1.761360 -0.123970
							CHANNELS 3 Zrotation Yrotation Xrotation
							End Site
							{
								OFFSET 0.000000 0.000000 0.000000
							}
						}
					}
				}
				JOINT LeftShoulder
				{
					OFFSET 0.000000 0.000000 0.000000
					CHANNELS 3 Zrotation Yrotation Xrotation
					JOINT LeftArm
					{
						OFFSET 3.362410 1.200890 -0.311210
						CHANNELS 3 Zrotation Yrotation Xrotation
						JOINT LeftForeArm
						{
							OFFSET 4.983000 -0.000000 -0.000000
							CHANNELS 3 Zrotation Yrotation Xrotation
							JOINT LeftHand
							{
								OFFSET 3.483560 -0.000000 -0.000000
								CHANNELS 3 Zrotation Yrotation Xrotation
								JOINT LeftFingerBase
								{
									OFFSET 0.000000 0.000000 0.000000
									CHANNELS 3 Zrotation Yrotation Xrotation
									JOINT LeftHandIndex1
									{
										OFFSET 0.715260 -0.000000 -0.000000
										CHANNELS 3 Zrotation Yrotation Xrotation
										End Site
										{
											OFFSET 0.000000 0.000000 0.000000
										}
									}
								}
								JOINT LThumb
								{
									OFFSET 0.000000 0.000000 0.000000
									CHANNELS 3 Zrotation Yrotation Xrotation
									End Site
									{
										OFFSET 0.000000 0.000000 0.000000
									}
								}
							}
						}
					}
				}
				JOINT RightShoulder
				{
					OFFSET 0.000000 0.000000 0.000000
					CHANNELS 3 Zrotation Yrotation Xrotation
					JOINT RightArm
					{
						OFFSET -3.136600 1.374050 -0.404650
						CHANNELS 3 Zrotation Yrotation Xrotation
						JOINT RightForeArm
						{
							OFFSET -5.241900 -0.000000 -0.000000
							CHANNELS 3 Zrotation Yrotation Xrotation
							JOINT RightHand
							{
								OFFSET -3.444170 -0.000000 -0.000000
								CHANNELS 3 Zrotation Yrotation Xrotation
								JOINT RightFingerBase
								{
									OFFSET 0.000000 0.000000 0.000000
									CHANNELS 3 Zrotation Yrotation Xrotation
									JOINT RightHandIndex1
									{
										OFFSET -0.622530 -0.000000 -0.000000
										CHANNELS 3 Zrotation Yrotation Xrotation
										End Site
										{
											OFFSET 0.000000 0.000000 0.000000
										}
									}
								}
								JOINT RThumb
								{
									OFFSET 0.000000 0.000000 0.000000
									CHANNELS 3 Zrotation Yrotation Xrotation
									End Site
									{
										OFFSET 0.000000 0.000000 0.000000
									}
								}
							}
						}
					}
				}
			}
		}
	}
}
}
MOTION
Frames: 15
Frame Time: 0.008333
-2.005864 16.891164 -0.857192 -164.617550 84.124677 -154.976845 5.115789 -3.150356 -2.041948 0.131240 -3.666785 -3.383772 -7.642338 -3.738273 -0.027757 9.904141 -5.943654 -6.498360 -4.732270 -0.369092 0.276790 0.000000 0.000000 0.000000 -6.775286 1.905892 2.098585 -63.097914 -9.879990 14.045619 -2.914613 -34.709304 -0.008356 4.331464 1.461228 0.053219 -0.085934 0.103250 0.000000 0.000000 0.000000 0.000000 0.000000 0.000000 0.000000 20.597368 -4.987015 1.417127 65.046785 -2.730107 -11.130255 4.078787 10.866719 0.005248 -0.592555 2.829358 -0.017282 0.106379 -0.042575 -0.000000 0.000000 0.000000 0.000000 0.000000 0.000000 0.000000 
-1.864098 16.910129 -0.870791 -163.187991 83.572585 -153.616822 5.471770 -3.094385 -2.005671 0.195607 -3.633627 -3.395710 -7.609034 -3.706538 -0.046988 9.845858 -5.809391 -6.511859 -4.729047 -0.368978 0.274815 0.000000 0.000000 0.000000 -6.801862 2.068696 2.083385 -63.930641 -9.210802 13.831522 -2.895292 -33.749560 -0.008214 4.334966 1.588044 0.058164 -0.081239 0.099064 0.000000 0.000000 0.000000 0.000000 0.000000 0.000000 0.000000 20.491800 -4.790285 1.414964 65.146779 -2.409599 -10.786224 4.091531 10.967152 0.005375 -0.502417 2.858357 -0.015174 0.106322 -0.043272 -0.000000 0.000000 0.000000 0.000000 0.000000 0.000000 0.000000 
-1.724498 16.929154 -0.883531 -162.206908 82.981656 -152.685012 5.797493 -3.042221 -1.979653 0.254621 -3.602481 -3.408627 -7.580579 -3.677097 -0.064438 9.803198 -5.679403 -6.525405 -4.726944 -0.368974 0.272909 0.000000 0.000000 0.000000 -6.801200 2.214234 2.074256 -64.726443 -8.537851 13.636150 -2.875801 -32.794833 -0.008019 4.302854 1.736078 0.063513 -0.076661 0.094895 0.000000 0.000000 0.000000 0.000000 0.000000 0.000000 0.000000 20.408453 -4.596315 1.412904 65.254328 -2.071547 -10.404147 4.101673 11.113496 0.005554 -0.391050 2.911149 -0.012564 0.105996 -0.044075 -0.000000 0.000000 0.000000 0.000000 0.000000 0.000000 0.000000 
-1.587493 16.948175 -0.895305 -161.681840 82.352489 -152.190104 6.081523 -2.994922 -1.959774 0.305586 -3.573493 -3.420731 -7.558681 -3.649962 -0.077593 9.779817 -5.557881 -6.542885 -4.727201 -0.369116 0.269824 0.000000 0.000000 0.000000 -6.779727 2.355823 2.071933 -65.470000 -7.893819 13.493692 -2.859066 -31.839358 -0.007771 4.230929 1.899500 0.068665 -0.072392 0.090815 0.000000 0.000000 0.000000 0.000000 0.000000 0.000000 0.000000 20.359125 -4.409167 1.409995 65.359233 -1.715199 -9.965121 4.107905 11.318352 0.005771 -0.267456 2.984569 -0.009653 0.105401 -0.044950 -0.000000 0.000000 0.000000 0.000000 0.000000 0.000000 0.000000 
-1.453122 16.967167 -0.907169 -161.385204 81.679972 -151.896940 6.354930 -2.947820 -1.956203 0.353917 -3.544940 -3.435340 -7.542427 -3.623346 -0.090867 9.763854 -5.445809 -6.560470 -4.729634 -0.369454 0.266881 0.000000 0.000000 0.000000 -6.761811 2.467392 2.076255 -66.147808 -7.245155 13.398631 -2.842405 -30.922868 -0.007462 4.113169 2.082975 0.073522 -0.068259 0.086789 0.000000 0.000000 0.000000 0.000000 0.000000 0.000000 0.000000 20.327421 -4.230402 1.409403 65.457254 -1.337430 -9.502179 4.111935 11.564232 0.006036 -0.133250 3.082779 -0.006241 0.104618 -0.046033 -0.000000 0.000000 0.000000 0.000000 0.000000 0.000000 0.000000 
-1.321925 16.986145 -0.919010 -161.359940 80.968991 -151.859133 6.601639 -2.902093 -1.953883 0.396205 -3.516080 -3.448447 -7.532783 -3.596399 -0.100994 9.759429 -5.343321 -6.582874 -4.735126 -0.369958 0.262395 0.000000 0.000000 0.000000 -6.749151 2.575324 2.087597 -66.752274 -6.641546 13.390401 -2.829385 -30.023972 -0.007111 3.951021 2.277925 0.077584 -0.064512 0.082939 0.000000 0.000000 0.000000 0.000000 0.000000 0.000000 0.000000 20.324502 -4.059121 1.409624 65.539415 -0.938508 -8.997889 4.112087 11.864503 0.006328 0.001469 3.198438 -0.002628 0.103652 -0.047268 -0.000000 0.000000 0.000000 0.000000 0.000000 0.000000 0.000000 
-1.193771 17.005126 -0.931629 -161.456928 80.216168 -151.919819 6.845500 -2.853389 -1.964150 0.436853 -3.485018 -3.463990 -7.528075 -3.567292 -0.114332 9.755280 -5.251341 -6.603706 -4.743145 -0.370690 0.258433 0.000000 0.000000 0.000000 -6.757557 2.640454 2.105067 -67.279470 -6.029124 13.439064 -2.816085 -29.188522 -0.006713 3.743150 2.488560 0.080549 -0.060888 0.079176 0.000000 0.000000 0.000000 0.000000 0.000000 0.000000 0.000000 20.332778 -3.897602 1.414728 65.603800 -0.517543 -8.480152 4.110085 12.197888 0.006651 0.134202 3.332827 0.001187 0.102604 -0.048773 -0.000000 0.000000 0.000000 0.000000 0.000000 0.000000 0.000000 
-1.069066 17.024154 -0.944867 -161.697731 79.428670 -152.113235 7.073797 -2.802683 -1.970739 0.473363 -3.450871 -3.477722 -7.528293 -3.535043 -0.126688 9.754277 -5.165495 -6.627827 -4.753873 -0.371556 0.253232 0.000000 0.000000 0.000000 -6.785467 2.700291 2.128477 -67.729027 -5.464568 13.582316 -2.805877 -28.386280 -0.006297 3.497886 2.705327 0.082119 -0.057656 0.075646 0.000000 0.000000 0.000000 0.000000 0.000000 0.000000 0.000000 20.358564 -3.739681 1.422371 65.644623 -0.075770 -7.941751 4.104682 12.573788 0.006984 0.257664 3.477611 0.005102 0.101484 -0.050482 -0.000000 0.000000 0.000000 0.000000 0.000000 0.000000 0.000000 
-0.947829 17.043259 -0.958818 -162.040577 78.609678 -152.399649 7.288145 -2.748688 -1.972554 0.506114 -3.412378 -3.490204 -7.532274 -3.498464 -0.140979 9.752750 -5.082817 -6.651877 -4.766939 -0.372560 0.247718 0.000000 0.000000 0.000000 -6.833408 2.742132 2.157192 -68.103833 -4.929650 13.801805 -2.797465 -27.633132 -0.005870 3.222097 2.926199 0.082093 -0.054746 0.072322 0.000000 0.000000 0.000000 0.000000 0.000000 0.000000 0.000000 20.395134 -3.582932 1.434227 65.661434 0.384920 -7.396252 4.096280 12.980916 0.007324 0.368904 3.629458 0.008918 0.100344 -0.052427 -0.000000 0.000000 0.000000 0.000000 0.000000 0.000000 0.000000 
-0.830148 17.062463 -0.973196 -162.490486 77.766601 -152.791284 7.478289 -2.692304 -1.961124 0.533346 -3.369121 -3.499392 -7.539208 -3.457151 -0.155411 9.751513 -4.994671 -6.676756 -4.782065 -0.373633 0.241388 0.000000 0.000000 0.000000 -6.896094 2.789599 2.190896 -68.407681 -4.453629 14.110591 -2.792447 -26.913048 -0.005462 2.928433 3.144159 0.080472 -0.052310 0.069287 0.000000 0.000000 0.000000 0.000000 0.000000 0.000000 0.000000 20.442567 -3.417687 1.448754 65.654128 0.858746 -6.856212 4.084466 13.418559 0.007655 0.467222 3.782405 0.012634 0.099184 -0.054574 -0.000000 0.000000 0.000000 0.000000 0.000000 0.000000 0.000000 
-0.715652 17.081781 -0.988041 -163.006521 76.901221 -153.240480 7.647512 -2.631372 -1.947447 0.555900 -3.319815 -3.509376 -7.547488 -3.410003 -0.178402 9.745442 -4.908538 -6.693229 -4.798535 -0.374874 0.237159 0.000000 0.000000 0.000000 -6.969693 2.779222 2.228061 -68.649939 -3.949411 14.423336 -2.786014 -26.281429 -0.005061 2.624556 3.362178 0.077452 -0.049986 0.066312 0.000000 0.000000 0.000000 0.000000 0.000000 0.000000 0.000000 20.490232 -3.255122 1.471422 65.622368 1.350656 -6.312460 4.070539 13.861153 0.007979 0.547030 3.936202 0.016051 0.098115 -0.056972 -0.000000 0.000000 0.000000 0.000000 0.000000 0.000000 0.000000 
-0.604375 17.101177 -1.002662 -163.640604 76.024415 -153.808260 7.771852 -2.569636 -1.918193 0.569573 -3.265564 -3.515684 -7.556705 -3.358055 -0.202075 9.740402 -4.807906 -6.707361 -4.816161 -0.376129 0.232872 0.000000 0.000000 0.000000 -7.042722 2.780517 2.268770 -68.834455 -3.501111 14.792323 -2.783255 -25.684698 -0.004708 2.328567 3.568262 0.073136 -0.048172 0.063601 0.000000 0.000000 0.000000 0.000000 0.000000 0.000000 0.000000 20.545587 -3.075771 1.496356 65.568046 1.848753 -5.785266 4.053275 14.319834 0.008282 0.613349 4.083849 0.019068 0.097055 -0.059521 -0.000000 0.000000 0.000000 0.000000 0.000000 0.000000 0.000000 
-0.495991 17.120625 -1.016805 -164.383413 75.140510 -154.481404 7.845044 -2.507396 -1.878933 0.573514 -3.206515 -3.519933 -7.565595 -3.301538 -0.228764 9.735220 -4.692767 -6.715450 -4.834278 -0.377404 0.229688 0.000000 0.000000 0.000000 -7.108354 2.776513 2.311928 -68.969520 -3.078535 15.175571 -2.782762 -25.140355 -0.004407 2.051989 3.760711 0.068222 -0.046748 0.061056 0.000000 0.000000 0.000000 0.000000 0.000000 0.000000 0.000000 20.603953 -2.881223 1.524758 65.492250 2.352314 -5.273530 4.033278 14.781015 0.008563 0.666014 4.224156 0.021684 0.096042 -0.062208 -0.000000 0.000000 0.000000 0.000000 0.000000 0.000000 0.000000 
-0.390184 17.140023 -1.030170 -165.237864 74.255176 -155.263241 7.857366 -2.446355 -1.828459 0.566264 -3.143549 -3.521145 -7.573161 -3.241315 -0.254956 9.730829 -4.552139 -6.719099 -4.852312 -0.378613 0.227028 0.000000 0.000000 0.000000 -7.159688 2.800531 2.357095 -69.060368 -2.715185 15.587809 -2.786393 -24.626436 -0.004176 1.808086 3.933108 0.063110 -0.045851 0.058759 0.000000 0.000000 0.000000 0.000000 0.000000 0.000000 0.000000 20.663802 -2.659161 1.553487 65.397914 2.851118 -4.797279 4.010541 15.245088 0.008817 0.711975 4.354482 0.024200 0.095023 -0.064979 -0.000000 0.000000 0.000000 0.000000 0.000000 0.000000 0.000000 
-0.286447 17.159228 -1.042825 -166.173762 73.369047 -156.114374 7.812006 -2.384751 -1.780394 0.548574 -3.076006 -3.523812 -7.578388 -3.176835 -0.289057 9.724001 -4.408706 -6.710346 -4.869585 -0.379874 0.227626 0.000000 0.000000 0.000000 -7.193514 2.770443 2.401955 -69.117519 -2.302347 15.911308 -2.788861 -24.209344 -0.003986 1.600735 4.090711 0.058397 -0.045001 0.056366 0.000000 0.000000 0.000000 0.000000 0.000000 0.000000 0.000000 20.719171 -2.438075 1.589255 65.280171 3.365338 -4.306834 3.986761 15.682047 0.009056 0.741198 4.477710 0.026116 0.094166 -0.067849 -0.000000 0.000000 0.000000 0.000000 0.000000 0.000000 0.000000 
